# xmcd CD database file
#
# Track frame offsets:
#	150
#	22918
#	41326
#	67662
#	88681
#	108721
#	134188
#	150305
#	165229
#	184202
#	206171
#	224152
#
# Disc length: 3590 seconds
#
# Revision: 0
# Processed by: cddbd v1.5.2PL0 Copyright (c) Steve Scherf et al.
# Submitted via: CDex 1.70beta2
#
DISCID=a50e040c
DTITLE=noGarrett and Westcott - no Kate's Front Porch
DYEAR=2001
DGENRE=Blues
TTITLE0=Kate's Front Porch
TTITLE1=Vagabond Moon
TTITLE2=Remember Me
TTITLE3=Dry River
TTITLE4=Cactus
TTITLE5=All Along the Watchtower
TTITLE6=Fade Away
TTITLE7=Move On
TTITLE8=Flyin' Shoes
TTITLE9=Down the Line
TTITLE10=Skewbald
TTITLE11=The Flowers of the Forest
EXTD=YEAR: 2001
EXTT0=
EXTT1=
EXTT2=
EXTT3=
EXTT4=
EXTT5=
EXTT6=
EXTT7=
EXTT8=
EXTT9=
EXTT10=
EXTT11=
PLAYORDER=
